<svg xmlns="http://www.w3.org/2000/svg" width="368.344" height="375.828" viewBox="0 0 368.344 375.828">
  <g id="Grupo_183" data-name="Grupo 183" transform="translate(-6 -57.329)">
    <g id="Grupo_159" data-name="Grupo 159" transform="matrix(0.883, -0.469, 0.469, 0.883, 4879.917, -2940.564)">
      <g id="undraw_code_typing_7jnv" transform="translate(-5767.297 465)" opacity="0.1">
        <path id="Trazado_1297" data-name="Trazado 1297" d="M487.692,146.166c-15.87-62.4-70.705-107.451-135.07-109.257-34.028-.955-69.834,10.33-95.9,49.822-46.6,70.6,2.864,119.38,37.351,142.562a215.791,215.791,0,0,1,44.6,40.089c23.295,27.643,68.108,61.993,121.479,8.172C498.835,238.543,498.263,187.733,487.692,146.166Z" transform="translate(-237.703 -36.853)" fill="#ff6900"/>
        <path id="Trazado_1308" data-name="Trazado 1308" d="M773.578,766.623c-4.771.039-11.086-.743-12.357-1.517-.968-.59-1.354-2.706-1.483-3.682l-.141.005s.268,3.408,1.539,4.183,7.586,1.556,12.357,1.517c1.377-.011,1.853-.5,1.827-1.227C775.128,766.341,774.6,766.614,773.578,766.623Z" transform="translate(-586.398 -520.964)" fill="#ff6900" opacity="0.2"/>
      </g>
      <g id="undraw_code_typing_7jnv-2" data-name="undraw_code_typing_7jnv" transform="translate(-5745.394 523.727)" opacity="0.1">
        <path id="Trazado_1297-2" data-name="Trazado 1297" d="M408.155,111.387c-10.821-42.549-48.21-73.264-92.1-74.5-23.2-.651-47.616,7.044-65.391,33.971-31.776,48.135,1.953,81.4,25.467,97.2A147.137,147.137,0,0,1,306.547,195.4c15.883,18.848,46.439,42.269,82.829,5.572C415.753,174.373,415.363,139.729,408.155,111.387Z" transform="translate(-237.703 -36.853)" fill="#fa0"/>
        <path id="Trazado_1308-2" data-name="Trazado 1308" d="M769.13,764.969c-3.253.026-7.559-.507-8.425-1.035-.66-.4-.923-1.845-1.011-2.51l-.1,0s.182,2.324,1.049,2.852,5.172,1.061,8.425,1.035c.939-.008,1.263-.342,1.246-.836C770.187,764.776,769.829,764.963,769.13,764.969Z" transform="translate(-641.503 -597.468)" fill="#fa0" opacity="0.2"/>
      </g>
      <g id="undraw_code_typing_7jnv-3" data-name="undraw_code_typing_7jnv" transform="translate(-5763.979 480.93)" opacity="0.1">
        <path id="Trazado_1297-3" data-name="Trazado 1297" d="M487.692,146.166c-15.87-62.4-70.705-107.451-135.07-109.257-34.028-.955-69.834,10.33-95.9,49.822-46.6,70.6,2.864,119.38,37.351,142.562a215.791,215.791,0,0,1,44.6,40.089c23.295,27.643,68.108,61.993,121.479,8.172C498.835,238.543,498.263,187.733,487.692,146.166Z" transform="translate(-237.703 -36.853)" fill="none" stroke="#fff" stroke-width="8"/>
        <path id="Trazado_1308-3" data-name="Trazado 1308" d="M773.578,766.623c-4.771.039-11.086-.743-12.357-1.517-.968-.59-1.354-2.706-1.483-3.682l-.141.005s.268,3.408,1.539,4.183,7.586,1.556,12.357,1.517c1.377-.011,1.853-.5,1.827-1.227C775.128,766.341,774.6,766.614,773.578,766.623Z" transform="translate(-586.398 -520.964)" fill="none" stroke="#fff" stroke-width="8" opacity="0.2"/>
      </g>
    </g>
    <path id="Icon_feather-star" data-name="Icon feather-star" d="M98.627,3l29.549,59.862,66.078,9.658-47.813,46.57,11.284,65.791L98.627,153.8l-59.1,31.079,11.284-65.791L3,72.52l66.078-9.658Z" transform="translate(89.259 125.235)" fill="#ff6900"/>
    <path id="Icon_weather-stars" data-name="Icon weather-stars" d="M6.444,56.425a10.125,10.125,0,0,0,7.09-3.223,10.1,10.1,0,0,0,2.922-7.219,10.426,10.426,0,0,0,9.969,10.442,10.426,10.426,0,0,0-9.969,10.442,9.923,9.923,0,0,0-2.922-7.219A10.125,10.125,0,0,0,6.444,56.425ZM16.456,25.487A19.748,19.748,0,0,0,30.249,19.17,19.67,19.67,0,0,0,35.921,5.076,19.669,19.669,0,0,0,41.593,19.17,19.943,19.943,0,0,0,55.43,25.487a19.916,19.916,0,0,0-9.84,3.051,20.649,20.649,0,0,0-7.09,7.434,20.206,20.206,0,0,0-2.578,10.012,19.769,19.769,0,0,0-5.672-14.137A19.619,19.619,0,0,0,16.456,25.487ZM30.722,71.765a14.794,14.794,0,0,0,10.4-4.727,14.8,14.8,0,0,0,4.254-10.614,15.352,15.352,0,0,0,14.61,15.34,15.352,15.352,0,0,0-14.61,15.34,14.8,14.8,0,0,0-4.254-10.614A15.053,15.053,0,0,0,30.722,71.765ZM59.984,51.4A14.7,14.7,0,0,0,70.34,46.671a14.788,14.788,0,0,0,4.211-10.657A15.349,15.349,0,0,0,89.2,51.354a15.349,15.349,0,0,0-14.653,15.34A15.2,15.2,0,0,0,59.984,51.4Z" transform="translate(70.926 266.849)" fill="#fff"/>
    <path id="Icon_weather-stars-2" data-name="Icon weather-stars" d="M6.444,56.425a10.125,10.125,0,0,0,7.09-3.223,10.1,10.1,0,0,0,2.922-7.219,10.426,10.426,0,0,0,9.969,10.442,10.426,10.426,0,0,0-9.969,10.442,9.923,9.923,0,0,0-2.922-7.219A10.125,10.125,0,0,0,6.444,56.425ZM16.456,25.487A19.748,19.748,0,0,0,30.249,19.17,19.67,19.67,0,0,0,35.921,5.076,19.669,19.669,0,0,0,41.593,19.17,19.943,19.943,0,0,0,55.43,25.487a19.916,19.916,0,0,0-9.84,3.051,20.649,20.649,0,0,0-7.09,7.434,20.206,20.206,0,0,0-2.578,10.012,19.769,19.769,0,0,0-5.672-14.137A19.619,19.619,0,0,0,16.456,25.487ZM30.722,71.765a14.794,14.794,0,0,0,10.4-4.727,14.8,14.8,0,0,0,4.254-10.614,15.352,15.352,0,0,0,14.61,15.34,15.352,15.352,0,0,0-14.61,15.34,14.8,14.8,0,0,0-4.254-10.614A15.053,15.053,0,0,0,30.722,71.765ZM59.984,51.4A14.7,14.7,0,0,0,70.34,46.671a14.788,14.788,0,0,0,4.211-10.657A15.349,15.349,0,0,0,89.2,51.354a15.349,15.349,0,0,0-14.653,15.34A15.2,15.2,0,0,0,59.984,51.4Z" transform="matrix(0.259, 0.966, -0.966, 0.259, 277.893, 88.816)" fill="#fff"/>
    <path id="Icon_metro-star-full" data-name="Icon metro-star-full" d="M147.252,55.241,97.266,47.978,74.911,2.683l-22.354,45.3L2.571,55.241,38.741,90.5,30.2,140.283l44.709-23.5,44.709,23.5L111.081,90.5l36.171-35.257Z" transform="translate(113.325 150.148)" fill="#fa0" stroke="#fff" stroke-width="4"/>
  </g>
</svg>
