<svg xmlns="http://www.w3.org/2000/svg" width="343" height="241.889" viewBox="0 0 343 241.889">
  <g id="Grupo_179" data-name="Grupo 179" transform="translate(-16 -112)">
    <g id="undraw_calling_kpbp" transform="translate(16 112)">
      <path id="Trazado_1177" data-name="Trazado 1177" d="M370.15,201.848a81.248,81.248,0,0,1-28.208,61.574,79.764,79.764,0,0,1-64.747,18.31H150.045a108.069,108.069,0,0,1-14.819,1.021q-5.338,0-10.547-.513c-55.367-5.423-97.586-52.395-97.529-108.508,0-60.213,48.389-109.022,108.076-109.022,48.071,0,88.805,31.662,102.843,75.439a79.474,79.474,0,0,1,51.892-19.207C334.242,120.942,370.15,157.164,370.15,201.848Z" transform="translate(-27.15 -64.71)" fill="#ff6900" opacity="0.1"/>
      <path id="Trazado_1178" data-name="Trazado 1178" d="M351.09,505.438a79.812,79.812,0,0,1-62.145,16.142H161.795a108.075,108.075,0,0,1-14.819,1.021q-5.338,0-10.547-.513A108.342,108.342,0,0,1,43.92,446.524c10.353-22.315,36.95-38.194,68.133-38.194,30.387,0,56.433,15.082,67.3,36.5a89.6,89.6,0,0,1,16.223-1.471c31.495,0,58.31,16.208,68.435,38.858a87.8,87.8,0,0,1,25.869-3.838C315.572,478.394,338.148,489.166,351.09,505.438Z" transform="translate(-38.9 -304.557)" fill="#fa0" opacity="0.1"/>
    </g>
    <g id="undraw_Forms_re_pkrt" transform="translate(31.52 112)">
      <path id="Trazado_1062" data-name="Trazado 1062" d="M621.963,502.327H530.448a5.517,5.517,0,0,1-5.511-5.511v-65.8a5.517,5.517,0,0,1,5.511-5.511h91.515a5.517,5.517,0,0,1,5.511,5.511v65.8A5.517,5.517,0,0,1,621.963,502.327Z" transform="translate(-402.347 -312.743)" fill="#707070"/>
      <path id="Trazado_1063" data-name="Trazado 1063" d="M541.174,506.693h88.132a2.672,2.672,0,0,0,2.672-2.672V441.332a2.672,2.672,0,0,0-2.672-2.672H541.174a2.672,2.672,0,0,0-2.672,2.672v62.689A2.672,2.672,0,0,0,541.174,506.693Z" transform="translate(-411.381 -321.503)" fill="#fff"/>
      <path id="Trazado_1064" data-name="Trazado 1064" d="M254.922,237.851H163.407a5.517,5.517,0,0,1-5.511-5.511v-65.8a5.517,5.517,0,0,1,5.511-5.511h91.515a5.517,5.517,0,0,1,5.511,5.511v65.8A5.517,5.517,0,0,1,254.922,237.851Z" transform="translate(-157.896 -136.602)" fill="#707070"/>
      <path id="Trazado_1065" data-name="Trazado 1065" d="M174.133,242.218h88.132a2.672,2.672,0,0,0,2.672-2.672V176.857a2.672,2.672,0,0,0-2.672-2.672H174.133a2.672,2.672,0,0,0-2.672,2.672v62.689A2.672,2.672,0,0,0,174.133,242.218Z" transform="translate(-166.93 -145.362)" fill="#fff"/>
      <path id="Trazado_1066" data-name="Trazado 1066" d="M662.655,496.981h-56.3a2.011,2.011,0,1,0,0,4.021h56.3a2.011,2.011,0,0,0,0-4.021Z" transform="translate(-455.235 -360.345)" fill="#cecece"/>
      <path id="Trazado_1067" data-name="Trazado 1067" d="M606.359,534.025a2.011,2.011,0,0,0,0,4.021h56.3a2.011,2.011,0,0,0,0-4.021Z" transform="translate(-455.235 -385.016)" fill="#cecece"/>
      <path id="Trazado_1068" data-name="Trazado 1068" d="M606.359,571.069a2.011,2.011,0,1,0,0,4.021h56.3a2.011,2.011,0,0,0,0-4.021Z" transform="translate(-455.235 -409.688)" fill="#cecece"/>
      <circle id="Elipse_119" data-name="Elipse 119" cx="2.475" cy="2.475" r="2.475" transform="translate(137.978 136.326)" fill="#ff6900"/>
      <circle id="Elipse_120" data-name="Elipse 120" cx="2.475" cy="2.475" r="2.475" transform="translate(137.978 148.699)" fill="#cecece"/>
      <circle id="Elipse_121" data-name="Elipse 121" cx="2.475" cy="2.475" r="2.475" transform="translate(137.978 161.072)" fill="#cecece"/>
      <path id="Trazado_1069" data-name="Trazado 1069" d="M640.23,498.991h0a2.011,2.011,0,0,1-2.01,2.011H606.432a2.06,2.06,0,0,1-2.066-1.743,2.014,2.014,0,0,1,1.993-2.278h31.86A2.011,2.011,0,0,1,640.23,498.991Z" transform="translate(-455.235 -360.345)" fill="#ff6900"/>
      <circle id="Elipse_122" data-name="Elipse 122" cx="8.042" cy="8.042" r="8.042" transform="translate(165.817 88.228)" fill="#707070"/>
      <circle id="Elipse_123" data-name="Elipse 123" cx="4.021" cy="4.021" r="4.021" transform="translate(169.245 99.594) rotate(-80.783)" fill="#fff"/>
      <path id="Trazado_1070" data-name="Trazado 1070" d="M194.994,270.312a1.992,1.992,0,0,0,0,3.985h75.1a1.992,1.992,0,0,0,0-3.985Z" transform="translate(-181.276 -209.383)" fill="#e6e6e6"/>
      <path id="Trazado_1071" data-name="Trazado 1071" d="M194.994,307.024a1.992,1.992,0,0,0,0,3.985h75.1a1.993,1.993,0,0,0,0-3.985Z" transform="translate(-181.276 -233.833)" fill="#e6e6e6"/>
      <path id="Trazado_1072" data-name="Trazado 1072" d="M295.492,345.571a1.993,1.993,0,0,0,0,3.985h7.97a1.993,1.993,0,0,0,0-3.985Z" transform="translate(-248.208 -259.506)" fill="#fa0"/>
      <path id="Trazado_1073" data-name="Trazado 1073" d="M278.2,194.562a.614.614,0,0,0-.613.613v15.563a.614.614,0,0,0,.613.613h21.36a.614.614,0,0,0,.613-.613V195.175a.614.614,0,0,0-.613-.613Z" transform="translate(-237.609 -158.933)" fill="#fa0"/>
      <circle id="Elipse_124" data-name="Elipse 124" cx="3.372" cy="3.372" r="3.372" transform="translate(47.897 38.93)" fill="#fff"/>
      <path id="Trazado_1074" data-name="Trazado 1074" d="M305.909,233.517a3.346,3.346,0,0,1-.368,1.533h-10.3a3.372,3.372,0,0,1,3-4.9h4.292a3.37,3.37,0,0,1,3.372,3.368Z" transform="translate(-249.123 -182.631)" fill="#fff"/>
      <circle id="Elipse_125" data-name="Elipse 125" cx="3.372" cy="3.372" r="3.372" transform="translate(47.897 38.93)" fill="#fff"/>
      <path id="Trazado_1075" data-name="Trazado 1075" d="M305.909,233.517a3.346,3.346,0,0,1-.368,1.533h-10.3a3.372,3.372,0,0,1,3-4.9h4.292a3.37,3.37,0,0,1,3.372,3.368Z" transform="translate(-249.123 -182.631)" fill="#fff"/>
      <circle id="Elipse_126" data-name="Elipse 126" cx="7.97" cy="7.97" r="7.97" transform="translate(43.298 0)" fill="#707070"/>
      <circle id="Elipse_127" data-name="Elipse 127" cx="3.985" cy="3.985" r="3.985" transform="translate(47.283 3.985)" fill="#fa0"/>
      <path id="Trazado_1076" data-name="Trazado 1076" d="M736.884,681.871h-3.818l-1.816-14.728h5.635Z" transform="translate(-487.015 -444.32)" fill="#ffb8b8"/>
      <path id="Trazado_1077" data-name="Trazado 1077" d="M719.276,707.973h7.364v4.637h-12A4.636,4.636,0,0,1,719.276,707.973Z" transform="translate(-475.952 -471.512)" fill="#1c1c1c"/>
      <path id="Trazado_1078" data-name="Trazado 1078" d="M798.506,681.871h-3.819l-1.816-14.728h5.635Z" transform="translate(-528.056 -444.32)" fill="#ffb8b8"/>
      <path id="Trazado_1079" data-name="Trazado 1079" d="M780.9,707.973h7.364v4.637h-12a4.637,4.637,0,0,1,4.637-4.637Z" transform="translate(-516.992 -471.512)" fill="#1c1c1c"/>
      <circle id="Elipse_128" data-name="Elipse 128" cx="8.203" cy="8.203" r="8.203" transform="translate(251.065 116.446)" fill="#ffb8b8"/>
      <path id="Trazado_1080" data-name="Trazado 1080" d="M850.118,605.13a3.132,3.132,0,0,1,4.039-2.6l4.585-5.5,4.019,1.971-6.583,7.67a3.149,3.149,0,0,1-6.059-1.548Z" transform="translate(-618.9 -426.982)" fill="#ffb8b8"/>
      <path id="Trazado_1081" data-name="Trazado 1081" d="M967.71,614.083a3.132,3.132,0,0,1,2.014-4.359l.92-7.1,4.449-.493-1.441,10a3.149,3.149,0,0,1-5.944,1.945Z" transform="translate(-697.035 -430.377)" fill="#ffb8b8"/>
      <path id="Trazado_1082" data-name="Trazado 1082" d="M952.983,504.379h0a4.036,4.036,0,0,1,6.93.979l6.724,16.78a10.424,10.424,0,0,1,.635,5.409l-2.19,14.749a1.336,1.336,0,0,1-1.714,1.081l-2.885-.886a1.336,1.336,0,0,1-.935-1.433h0a48.532,48.532,0,0,0-3.9-25.461l-3.17-7.09A4.036,4.036,0,0,1,952.983,504.379Z" transform="translate(-686.859 -364.236)" fill="#ff6900"/>
      <path id="Trazado_1083" data-name="Trazado 1083" d="M914.407,447.8a8.752,8.752,0,1,0-1.64-17.309,10.061,10.061,0,0,0-6-1.645,5.885,5.885,0,0,0-4.967,3.394,4.2,4.2,0,0,0,2.013,5.336,7.591,7.591,0,0,0,4.005.057,5.973,5.973,0,0,1,3.96.35c1.164.69,1.687,2.54.645,3.4a3.586,3.586,0,0,0-1.03,3.948A3.923,3.923,0,0,0,914.407,447.8Z" transform="translate(-653.142 -314.946)" fill="#1c1c1c"/>
      <path id="Trazado_1084" data-name="Trazado 1084" d="M914.533,619.256l1.455,55.223a1.336,1.336,0,0,1-1.4,1.369l-4.794-.245a1.336,1.336,0,0,1-1.251-1.125l-5.7-35.868a.668.668,0,0,0-1.312-.041l-7.718,34.534a1.336,1.336,0,0,1-1.751.967l-4.757-.291a1.336,1.336,0,0,1-.885-1.354l4.153-53.695Z" transform="translate(-643.09 -441.433)" fill="#1c1c1c"/>
      <path id="Trazado_1085" data-name="Trazado 1085" d="M921.623,508.607a15.053,15.053,0,0,0-13.736-16.533c-3.613-.257-9.222-.348-11.071,4.388-5.57,14.266,4.181,13.92.821,26.28S891.31,535.81,895.92,536.7s25.339,6.161,24.488-2.538C919.885,528.817,920.823,516.954,921.623,508.607Z" transform="translate(-647.845 -357.012)" fill="#ff6900"/>
      <path id="Trazado_1086" data-name="Trazado 1086" d="M879.366,500.516h0a4.036,4.036,0,0,1,5.442,4.4l-2.618,16.363a15.99,15.99,0,0,1-3.428,7.617l-8.5,10.362a1.336,1.336,0,0,1-2.026.046l-2.02-2.243a1.336,1.336,0,0,1-.065-1.709l.595-.772a44.991,44.991,0,0,0,9.033-22.1l1.041-8.679A4.036,4.036,0,0,1,879.366,500.516Z" transform="translate(-629.409 -362.518)" fill="#ff6900"/>
      <path id="Trazado_1087" data-name="Trazado 1087" d="M868.109,810.781H781.938a.334.334,0,0,1,0-.668h86.171a.334.334,0,0,1,0,.668Z" transform="translate(-573.288 -568.892)" fill="#ccc"/>
    </g>
  </g>
</svg>
