<svg xmlns="http://www.w3.org/2000/svg" width="250.615" height="267.985" viewBox="0 0 250.615 267.985">
  <g id="Grupo_182" data-name="Grupo 182" transform="translate(-51 -89)">
    <g id="undraw_unicorn_dp2f" transform="translate(51 89)">
      <ellipse id="Elipse_196" data-name="Elipse 196" cx="64.81" cy="11.119" rx="64.81" ry="11.119" transform="translate(94.187 245.747)" fill="#ff6900" opacity="0.1"/>
      <path id="Trazado_1360" data-name="Trazado 1360" d="M512.162,802.961c-44.923,0-80.112-6.168-80.112-14.042s35.19-14.042,80.112-14.042,80.112,6.168,80.112,14.042S557.085,802.961,512.162,802.961Zm0-27.364c-43.035,0-79.392,6.1-79.392,13.322s36.357,13.322,79.392,13.322,79.392-6.1,79.392-13.322S555.2,775.6,512.162,775.6Z" transform="translate(-365.227 -538.217)" fill="#fa0" opacity="0.1"/>
      <path id="Trazado_1361" data-name="Trazado 1361" d="M460.395,169.791a109.23,109.23,0,0,1-2.11,21.438q-.324,1.631-.7,3.248-.221.972-.464,1.937-.157.626-.324,1.253a109.334,109.334,0,0,1-57.436,70.088,107.315,107.315,0,0,1-14.244,5.786q-1.113.362-2.236.7h0a108.975,108.975,0,0,1-31.577,4.645q-2.3,0-4.537-.1a90.45,90.45,0,0,1-12.029-1.336c-48.856-8.829-72.789-56.939-92.53-107.656q-.735-1.885-1.444-3.745l-.346-.918C187.9,26.276,244.848-8.861,351.3,60.694,401.738,93.65,460.395,109.539,460.395,169.791Z" transform="translate(-220.597 -26)" fill="#ff6900" opacity="0.1"/>
      <path id="Trazado_1362" data-name="Trazado 1362" d="M682.2,335.04l-.5-.519c.078-.075,7.869-7.707,10.836-21.966,2.74-13.17,1.81-34.854-18.187-63.367-15.336-21.868-21.542-40.974-18.446-56.787,2.72-13.892,11.972-19.994,12.065-20.054l.39.605c-.091.059-9.1,6.017-11.753,19.61-3.047,15.609,3.121,34.522,18.333,56.212,8.9,12.685,14.818,25.108,17.6,36.922a62.064,62.064,0,0,1,.69,27.051C690.214,327.208,682.283,334.964,682.2,335.04Z" transform="translate(-517.812 -126.099)" fill="#fa0" opacity="0.1"/>
      <path id="Trazado_1363" data-name="Trazado 1363" d="M293.093,253.746a133.464,133.464,0,0,0-9.448,15.515l-.346-.918a136.568,136.568,0,0,1,9.2-15.011c15.212-21.693,21.38-40.6,18.334-56.212-2.654-13.6-11.662-19.555-11.752-19.612l.389-.6c.094.061,9.347,6.164,12.065,20.055C314.635,212.772,308.427,231.876,293.093,253.746Z" transform="translate(-263.484 -129.215)" fill="#fa0" opacity="0.1"/>
      <path id="Trazado_1364" data-name="Trazado 1364" d="M425.851,350.2l-.5-.519c.1-.095,9.921-9.713,13.664-27.687,3.457-16.6,2.289-43.923-22.9-79.849-10.527-15.01-17.706-29.193-21.337-42.152-2.967-10.589-3.6-20.433-1.867-29.258,3.417-17.448,15.029-25.108,15.146-25.183l.39.605c-.114.074-11.484,7.59-14.834,24.739-3.843,19.675,3.926,43.508,23.091,70.836,11.191,15.958,18.641,31.584,22.142,46.445a78.033,78.033,0,0,1,.868,34.01C435.914,340.356,425.951,350.1,425.851,350.2Z" transform="translate(-337.803 -107.768)" fill="#fa0" opacity="0.1"/>
      <circle id="Elipse_197" data-name="Elipse 197" cx="27.873" cy="27.873" r="27.873" transform="translate(36 22.219)" fill="#fa0" opacity="0.1"/>
      <path id="Trazado_1365" data-name="Trazado 1365" d="M361.313,102.285a37.978,37.978,0,1,1,37.978-37.978,37.978,37.978,0,0,1-37.978,37.978Zm0-75.235a37.258,37.258,0,1,0,37.258,37.258A37.258,37.258,0,0,0,361.313,27.05Z" transform="translate(-290.868 -26.225)" fill="#fa0" opacity="0.1"/>
      <circle id="Elipse_198" data-name="Elipse 198" cx="23.114" cy="23.114" r="23.114" transform="translate(68.632 90.203)" fill="#fa0" opacity="0.1"/>
      <circle id="Elipse_199" data-name="Elipse 199" cx="23.114" cy="23.114" r="23.114" transform="translate(56.848 170.424)" fill="#fa0" opacity="0.1"/>
      <circle id="Elipse_200" data-name="Elipse 200" cx="5.401" cy="5.401" r="5.401" transform="translate(156.985 17.051)" fill="#fa0" opacity="0.1"/>
    </g>
    <g id="undraw_personal_finance_tqcd" transform="translate(74 131)">
      <path id="Trazado_1088" data-name="Trazado 1088" d="M827.182,604.414s28.159,1.456,21.6,10.32-23.793-5.2-23.793-5.2Z" transform="translate(-645.894 -453.168)" fill="#ffb8b8"/>
      <path id="Trazado_1089" data-name="Trazado 1089" d="M631.518,313.448l5.732,1.433s3.343,10.03,5.732,19.105,7.165,36.3,7.165,36.3l37.03,25.951-4.417,9.88-49.33-19.442-10.986-43.137Z" transform="translate(-502.123 -246.634)" fill="#ff6900"/>
      <path id="Trazado_1090" data-name="Trazado 1090" d="M438.237,291.607,436.1,336.342l4.458,13.3L427.5,340.067Z" transform="translate(-303.449 -206.989)" opacity="0.2"/>
      <path id="Trazado_1091" data-name="Trazado 1091" d="M536.708,633.222s6.209,16.717,7.165,28.181,1.911,20.538,1.911,20.538H516.647l-5.732-8.6v8.6H477s-9.553-31.046-5.732-34.867,40.121-20.061,40.121-20.061Z" transform="translate(-394.178 -469.209)" fill="#1c1c1c"/>
      <rect id="Rectángulo_16" data-name="Rectángulo 16" width="168.594" height="0.58" transform="translate(29.453 212.297)" fill="#3f3d56"/>
      <circle id="Elipse_129" data-name="Elipse 129" cx="18.15" cy="18.15" r="18.15" transform="translate(87.841 12.364)" fill="#ffb8b8"/>
      <path id="Trazado_1092" data-name="Trazado 1092" d="M521.823,214.688,520.39,235.7l18.15,24.359,9.075-22.927s-8.12-5.254-3.344-16.24Z" transform="translate(-429.684 -176.532)" fill="#ffb8b8"/>
      <path id="Trazado_1093" data-name="Trazado 1093" d="M504.738,375.206c0,4.3-11.941,10.986-11.941,10.986v2.388l-4.776,2.388-10.507-21.015-2.864,22.924s-21.018,3.346-27.7,0-10.031-1.909-19.584-5.252,3.822-48.242,3.822-48.242l-9.553-69.257,20.87-10.435,1.1-.551,2.87-.528,4.4-.812,14.7,9.939,1.184,6.21.728,3.822,3.819-4.3,2.884-9.486,20.521,11.4-5.731,45.851S504.738,370.909,504.738,375.206Z" transform="translate(-359.582 -207.134)" fill="#ff6900"/>
      <path id="Trazado_1094" data-name="Trazado 1094" d="M454.388,713.428s21.971,17.672,11.463,21.016-16.24-18.15-16.24-18.15Z" transform="translate(-379.444 -530.548)" fill="#ffb8b8"/>
      <path id="Trazado_1095" data-name="Trazado 1095" d="M391.355,301.235l-4.776-.955s-7.165,3.821-7.642,11.463-6.687,61.137-6.687,61.137l20.061,53.973,16.24-6.209-15.762-50.629,11.941-43.943Z" transform="translate(-324.53 -237.287)" fill="#ff6900"/>
      <circle id="Elipse_130" data-name="Elipse 130" cx="1.741" cy="1.741" r="1.741" transform="translate(106.35 75.042)" fill="#1c1c1c"/>
      <circle id="Elipse_131" data-name="Elipse 131" cx="1.741" cy="1.741" r="1.741" transform="translate(106.35 86.359)" fill="#1c1c1c"/>
      <circle id="Elipse_132" data-name="Elipse 132" cx="1.741" cy="1.741" r="1.741" transform="translate(116.217 160.935)" fill="#1c1c1c"/>
      <path id="Trazado_1096" data-name="Trazado 1096" d="M508.634,95.116l-3.355-1.343s7.015-7.723,16.776-7.052L519.309,83.7s6.71-2.686,12.811,4.365c3.207,3.707,6.917,8.064,9.23,12.973h3.593l-1.5,3.3,5.249,3.3-5.387-.593a18.451,18.451,0,0,1,.146,5.477,7.087,7.087,0,0,1-2.6,4.636h0s-4.161-8.613-4.161-9.956v3.358s-3.355-3.022-3.355-5.037l-1.83,2.351h-12.2l1.83-3.022-7.015,1.007,2.745-3.694-10.862,15.253S499.788,100.153,508.634,95.116Z" transform="translate(-417.967 -83.197)" fill="#1c1c1c"/>
      <circle id="Elipse_133" data-name="Elipse 133" cx="29.018" cy="29.018" r="29.018" transform="translate(169.58 82.279)" fill="#fff1d5"/>
      <circle id="Elipse_134" data-name="Elipse 134" cx="24.955" cy="24.955" r="24.955" transform="translate(173.642 86.341)" fill="#fa0" opacity="0.1"/>
      <path id="Trazado_1097" data-name="Trazado 1097" d="M876.23,445.267v-3.632a8.434,8.434,0,0,1-4.843-1.582l.76-2.409a7.742,7.742,0,0,0,4.559,1.546,3.491,3.491,0,0,0,3.767-3.524c0-1.978-1.235-3.2-3.577-4.28-3.229-1.438-5.223-3.093-5.223-6.221a5.654,5.654,0,0,1,4.78-5.79v-3.632h1.963v3.488a7.7,7.7,0,0,1,4.115,1.259l-.792,2.374a7,7,0,0,0-3.989-1.223,3.039,3.039,0,0,0-3.356,3.093c0,1.87,1.171,2.8,3.925,4.1,3.26,1.51,4.907,3.38,4.907,6.581a6.018,6.018,0,0,1-5,6.113v3.74Z" transform="translate(-678.828 -319.244)" fill="#fa0"/>
      <path id="Trazado_1098" data-name="Trazado 1098" d="M250.005,501.273l11.606,36.253L252.325,499.8Z" transform="translate(-177.459 -354.771)" opacity="0.2"/>
      <path id="Trazado_1099" data-name="Trazado 1099" d="M232.912,312.172h-7.367a1.212,1.212,0,0,1-1.211-1.211v-10.59a1.212,1.212,0,0,1,1.211-1.211h7.367a1.212,1.212,0,0,1,1.211,1.211v10.59A1.212,1.212,0,0,1,232.912,312.172Zm-7.367-12.431a.631.631,0,0,0-.631.631v10.59a.631.631,0,0,0,.631.631h7.367a.631.631,0,0,0,.631-.631v-10.59a.631.631,0,0,0-.631-.631Z" transform="translate(-219.537 -236.492)" fill="#1c1c1c"/>
      <path id="Trazado_1100" data-name="Trazado 1100" d="M280.155,284.015H273.5a1.57,1.57,0,0,1-1.568-1.568V261.061a1.57,1.57,0,0,1,1.568-1.568h6.653a1.57,1.57,0,0,1,1.568,1.568v21.386a1.57,1.57,0,0,1-1.568,1.568ZM273.5,260.074a.989.989,0,0,0-.988.988v21.386a.989.989,0,0,0,.988.988h6.653a.989.989,0,0,0,.988-.988V261.061a.989.989,0,0,0-.988-.988Z" transform="translate(-253.324 -208.336)" fill="#1c1c1c"/>
      <path id="Trazado_1101" data-name="Trazado 1101" d="M327.5,258.112H321.36a1.827,1.827,0,0,1-1.825-1.825V224.825A1.827,1.827,0,0,1,321.36,223H327.5a1.827,1.827,0,0,1,1.825,1.825v31.462a1.827,1.827,0,0,1-1.825,1.825ZM321.36,223.58a1.246,1.246,0,0,0-1.245,1.245v31.462a1.246,1.246,0,0,0,1.245,1.245H327.5a1.246,1.246,0,0,0,1.245-1.245V224.825a1.246,1.246,0,0,0-1.245-1.245Z" transform="translate(-287.112 -182.432)" fill="#1c1c1c"/>
      <rect id="Rectángulo_17" data-name="Rectángulo 17" width="5.525" height="8.978" transform="translate(6.929 64.685)" fill="#fa0"/>
      <rect id="Rectángulo_18" data-name="Rectángulo 18" width="5.525" height="20.373" transform="translate(20.742 53.289)" fill="#fa0"/>
      <rect id="Rectángulo_19" data-name="Rectángulo 19" width="5.525" height="30.963" transform="translate(34.554 42.7)" fill="#fa0"/>
      <path id="Trazado_1102" data-name="Trazado 1102" d="M835.685,131.754H797.091a.29.29,0,0,1-.29-.29V92.29a.29.29,0,0,1,.58,0v38.884h38.3a.29.29,0,0,1,0,.58Z" transform="translate(-625.886 -89.445)" fill="#1c1c1c"/>
      <path id="Trazado_1103" data-name="Trazado 1103" d="M253.94,245.138H208.091a.29.29,0,0,1-.29-.29V199.29a.29.29,0,1,1,.58,0v45.268H253.94a.29.29,0,1,1,0,.58Z" transform="translate(-207.801 -165.396)" fill="#1c1c1c"/>
      <path id="Trazado_1104" data-name="Trazado 1104" d="M822.717,184.639H815.35a1.212,1.212,0,0,1-1.211-1.211v-10.59a1.212,1.212,0,0,1,1.211-1.211h7.367a1.212,1.212,0,0,1,1.211,1.211v10.59A1.212,1.212,0,0,1,822.717,184.639Zm-7.367-12.431a.632.632,0,0,0-.631.631v10.59a.632.632,0,0,0,.631.631h7.367a.631.631,0,0,0,.631-.631v-10.59a.631.631,0,0,0-.631-.631Z" transform="translate(-638.193 -145.967)" fill="#1c1c1c"/>
      <path id="Trazado_1105" data-name="Trazado 1105" d="M875.424,162.189h-6.78a1.506,1.506,0,0,1-1.5-1.5V141.5a1.506,1.506,0,0,1,1.5-1.5h6.78a1.506,1.506,0,0,1,1.5,1.5v19.181a1.506,1.506,0,0,1-1.5,1.5Zm-6.78-21.609a.925.925,0,0,0-.924.924v19.181a.925.925,0,0,0,.924.924h6.78a.925.925,0,0,0,.924-.924V141.5a.925.925,0,0,0-.924-.924Z" transform="translate(-675.813 -123.517)" fill="#1c1c1c"/>
      <rect id="Rectángulo_20" data-name="Rectángulo 20" width="5.525" height="8.978" transform="translate(177.946 27.778)" fill="#fa0"/>
      <rect id="Rectángulo_21" data-name="Rectángulo 21" width="5.525" height="17.371" transform="translate(193.458 18.892)" fill="#fa0"/>
      <circle id="Elipse_135" data-name="Elipse 135" cx="2.612" cy="2.612" r="2.612" transform="translate(178.17 17.354)" fill="#fa0"/>
      <circle id="Elipse_136" data-name="Elipse 136" cx="2.612" cy="2.612" r="2.612" transform="translate(193.549 7.488)" fill="#fa0"/>
    </g>
  </g>
</svg>
