<svg id="Capa_1" data-name="Capa 1" xmlns="http://www.w3.org/2000/svg" viewBox="0 0 150 150"><defs><style>.cls-1{fill:#fff;}</style></defs><path class="cls-1" d="M137.19,75A62.19,62.19,0,1,1,75,12.81,62.19,62.19,0,0,1,137.19,75ZM75,3a72,72,0,1,0,72,72A72,72,0,0,0,75,3Z"/><circle class="cls-1" cx="55.25" cy="48.48" r="8.35"/><path class="cls-1" d="M77.94,43.05l-.39.47a4.38,4.38,0,0,0,.28,5.9l17.79,17.8L77.25,85.59a4.38,4.38,0,0,0,0,6.19h0a4.37,4.37,0,0,0,6.2,0l21.63-21.63a4.36,4.36,0,0,0,0-6.15L84.45,42.79A4.39,4.39,0,0,0,77.94,43.05Z"/><path class="cls-1" d="M67.69,98.85h0a3.81,3.81,0,0,1,3.54,2.36,15.69,15.69,0,0,0,2,3.49,11.4,11.4,0,0,0,9.16,4.44h0a8.82,8.82,0,0,0,5.36-1.75,11.71,11.71,0,0,0,4.24-5.88,3.78,3.78,0,0,1,3.63-2.66h.2a3.85,3.85,0,0,1,3.76,4.62c-.72,3.69-2.63,8.7-7.68,11.64A15.42,15.42,0,0,1,84,117.05H81.09a17.56,17.56,0,0,1-14.35-7,16.24,16.24,0,0,1-2.85-6.8A3.82,3.82,0,0,1,67.69,98.85Z"/></svg>