<svg xmlns="http://www.w3.org/2000/svg" width="100" height="88.889" viewBox="0 0 100 88.889">
  <path id="Icon_awesome-share-square" data-name="Icon awesome-share-square" d="M98.695,30.807l-25,23.608a4.17,4.17,0,0,1-7.028-3.029V35.477c-25.1.168-35.674-.234-28.607,33.164a2.78,2.78,0,0,1-4.341,3.009c-6.765-5.139-12.885-14.968-12.885-24.89,0-24.989,20.416-29.948,45.833-30.089V4.169A4.17,4.17,0,0,1,73.694,1.14l25,23.609A4.168,4.168,0,0,1,98.695,30.807ZM71.3,65.235l.21,17.47H5.919V16.671H20.833c.567,0,5.4.059,8.513,0,1.5-.323,2.179-5.56,0-5.56H8.333c-4.6,0-8.06.789-8.333,8.333V80.556c0,4.6.838,8.127,8.333,8.333H69.444c7.029.036,8.333-3.731,8.333-8.333V65.138A2.083,2.083,0,0,0,75,63.176c-1.9.673.693.288-1.3,0A2.087,2.087,0,0,0,71.3,65.235Z" fill="#1c1c1c"/>
</svg>
